<svg width="26" height="20" viewBox="0 0 26 20" fill="none" xmlns="http://www.w3.org/2000/svg">
<path d="M21.3911 11.1772C23.0589 11.1772 24.6504 11.6705 26 12.5877C25.6391 14.1771 24.9946 15.6584 24.122 16.9758L23.9683 16.8222C23.2799 16.1339 22.3645 15.7547 21.3911 15.7547C20.4177 15.7547 19.5023 16.1339 18.8139 16.8222L18.7946 16.8416C17.2414 18.3946 15.1766 19.25 12.9801 19.25C10.7836 19.25 8.71873 18.3946 7.16558 16.8416C5.74451 15.4207 3.43189 15.4206 2.01083 16.8416L1.87691 16.9755C1.00508 15.6595 0.360939 14.1798 0 12.5926C1.34515 11.6844 2.92882 11.1962 4.58802 11.1962C6.78454 11.1962 8.84942 12.0516 10.4026 13.6046C11.8236 15.0255 14.1363 15.0255 15.5573 13.6046L15.5766 13.5853C17.1297 12.0322 19.1946 11.1768 21.3911 11.1768V11.1772Z" fill="#00FFFF"/>
<path d="M12.9999 7.31521C14.2756 7.31525 15.3098 8.3493 15.3098 9.62494C15.3098 10.9006 14.2756 11.9348 12.9999 11.9348C11.7241 11.9348 10.6898 10.9006 10.6898 9.62494C10.6898 8.34928 11.7241 7.31521 12.9999 7.31521Z" fill="#00FFFF"/>
<path d="M12.9801 0C15.1766 9.37239e-06 17.2414 0.855334 18.7946 2.40832L18.8139 2.42769C19.5023 3.11601 20.4177 3.49518 21.3911 3.49518C22.3645 3.49518 23.2799 3.11602 23.9683 2.42769L24.122 2.27404C24.9946 3.59153 25.6394 5.07312 26 6.66221C24.6504 7.57935 23.0589 8.07269 21.3911 8.07269C19.1946 8.07269 17.1297 7.21726 15.5766 5.66425L15.5573 5.645C14.1363 4.22408 11.8236 4.22408 10.4026 5.645V5.64537C8.84942 7.19837 6.78454 8.05369 4.58802 8.05369C2.92919 8.05368 1.34515 7.56552 0 6.65731C0.360941 5.06971 1.00545 3.5904 1.87691 2.27441L2.01083 2.40832C3.43189 3.82924 5.74451 3.82924 7.16558 2.40832C8.71873 0.855312 10.7836 0 12.9801 0Z" fill="#00FFFF"/>
</svg>
